<?xml version="1.0" encoding="utf-8"?>
<!-- Generator: Adobe Illustrator 21.0.2, SVG Export Plug-In . SVG Version: 6.00 Build 0)  -->
<svg version="1.1"
	 id="svg2" inkscape:version="0.48.2 r9819" sodipodi:docname="bitcoin-logo-noshadow.svg" xmlns:cc="http://creativecommons.org/ns#" xmlns:dc="http://purl.org/dc/elements/1.1/" xmlns:inkscape="http://www.inkscape.org/namespaces/inkscape" xmlns:rdf="http://www.w3.org/1999/02/22-rdf-syntax-ns#" xmlns:sodipodi="http://sodipodi.sourceforge.net/DTD/sodipodi-0.dtd" xmlns:svg="http://www.w3.org/2000/svg"
	 xmlns="http://www.w3.org/2000/svg" xmlns:xlink="http://www.w3.org/1999/xlink" x="0px" y="0px" viewBox="0 0 1024 1024"
	 style="enable-background:new 0 0 1024 1024;" xml:space="preserve">
<style type="text/css">
	.st0{fill:#5856D6;}
	.st1{fill:#FFCC00;}
	.st2{fill:#FF9500;}
	.st3{fill:#FF2D55;}
	.st4{fill:#4CD964;}
	.st5{fill:#57D4EA;}
</style>
<g>
	
		<rect x="735.2" y="417.9" transform="matrix(0.7071 0.7071 -0.7071 0.7071 604.8541 -436.3745)" class="st0" width="188.1" height="188.1"/>
	
		<rect x="692.4" y="258.4" transform="matrix(0.9659 0.2588 -0.2588 0.9659 118.0221 -191.5376)" class="st1" width="188.1" height="188.1"/>
	
		<rect x="575.7" y="141.7" transform="matrix(0.9659 -0.2588 0.2588 0.9659 -38.19 181.3648)" class="st2" width="188.1" height="188.1"/>
	
		<rect x="416.2" y="99" transform="matrix(0.7071 -0.7071 0.7071 0.7071 12.9776 417.3166)" class="st3" width="188.1" height="188.1"/>
	
		<rect x="256.7" y="141.7" transform="matrix(0.2588 -0.9659 0.9659 0.2588 32.2875 513.5245)" class="st4" width="188.1" height="188.1"/>
	
		<rect x="140" y="258.4" transform="matrix(-0.2588 -0.9659 0.9659 -0.2588 -45.8639 669.7366)" class="st5" width="188.1" height="188.1"/>
	
		<rect x="97.3" y="417.9" transform="matrix(-0.7071 -0.7071 0.7071 -0.7071 -35.439 1009.1932)" class="st0" width="188.1" height="188.1"/>
	
		<rect x="140" y="577.4" transform="matrix(-0.9659 -0.2588 0.2588 -0.9659 286.2958 1380.5073)" class="st1" width="188.1" height="188.1"/>
	
		<rect x="256.7" y="694.1" transform="matrix(-0.9659 0.2588 -0.2588 -0.9659 893.5618 1458.6587)" class="st2" width="188.1" height="188.1"/>
	
		<rect x="416.2" y="736.9" transform="matrix(-0.7071 0.7071 -0.7071 -0.7071 1458.5453 1057.6097)" class="st3" width="188.1" height="188.1"/>
	
		<rect x="575.7" y="694.1" transform="matrix(-0.2588 0.9659 -0.9659 -0.2588 1604.3324 345.2508)" class="st4" width="188.1" height="188.1"/>
	
		<rect x="692.4" y="577.4" transform="matrix(0.2588 0.9659 -0.9659 0.2588 1231.4301 -262.0152)" class="st5" width="188.1" height="188.1"/>
</g>
</svg>
